<?xml version="1.0" encoding="UTF-8"?>
<svg width="18px" height="20px" viewBox="0 0 18 20" version="1.1" xmlns="http://www.w3.org/2000/svg" xmlns:xlink="http://www.w3.org/1999/xlink">
    <!-- Generator: Sketch 51.2 (57519) - http://www.bohemiancoding.com/sketch -->
    <title>czgl copy 2</title>
    <desc>Created with Sketch.</desc>
    <defs></defs>
    <g id="28快运首页dashboard" stroke="none" stroke-width="1" fill="none" fill-rule="evenodd">
        <g id="28快运侧栏导航图标" transform="translate(-258.000000, -718.000000)" fill-rule="nonzero" stroke="#FFFFFF">
            <g id="Group-2" transform="translate(257.000000, 719.000000)">
                <g id="czgl-copy-2" transform="translate(2.000000, 0.000000)">
                    <path d="M8.01703615,7.911 C10.0714613,7.7994406 11.656553,6.03963237 11.5757745,3.96 C11.6615561,1.87692724 10.0750672,0.111555573 8.01703615,0 C5.962611,0.111559401 4.37751935,1.87136763 4.45829776,3.951 C4.37751935,6.03063237 5.962611,7.7904406 8.01703615,7.902 L8.01703615,7.911 Z M7.59888439,13.68 L10.9085111,8.847 C9.96526191,8.59217214 8.99334141,8.46208862 8.01703615,8.46 C6.56656251,8.39716888 5.12185248,8.68082791 3.79993116,9.288 C3.79993116,9.288 3.53302578,9.288 3.00811187,10.188 C2.20739573,11.529 0.970734143,13.491 0.614860305,14.148 C0.356851772,14.58 -0.274824292,15.435 0.134430622,16.344 C0.40984957,16.9328403 0.750082842,17.4883558 1.14867106,18 L3.13266771,18 C3.29241048,15.6150446 5.21891628,13.7441558 7.5810907,13.68 L7.59888439,13.68 Z M15.419212,14.13 C14.8053296,13.05 13.453009,10.863 13.3462469,10.665 C13.2394847,10.467 12.7590551,9.423 11.9227515,9.153 L11.5757745,9.045 L8.40849737,13.68 C10.7964975,13.7154855 12.7620492,15.5905421 12.936992,18 L14.7163612,18 C14.7163612,18 14.9120918,18 15.8551575,16.254 C16.2110313,15.354 15.8551575,14.922 15.3925215,14.13 L15.419212,14.13 Z M8.01703615,14.823 C5.92627735,14.823 4.23587661,16.2 4.23587661,18 L11.7981957,18 C11.7981957,16.2 10.107795,14.823 8.01703615,14.823 Z" id="me_siji"></path>
                </g>
            </g>
        </g>
    </g>
</svg>