<?xml version="1.0" encoding="UTF-8"?>
<svg width="17px" height="18px" viewBox="0 0 17 18" version="1.1" xmlns="http://www.w3.org/2000/svg" xmlns:xlink="http://www.w3.org/1999/xlink">
    <!-- Generator: Sketch 51.2 (57519) - http://www.bohemiancoding.com/sketch -->
    <title>dxtdsz copy</title>
    <desc>Created with Sketch.</desc>
    <defs></defs>
    <g id="28快运首页dashboard" stroke="none" stroke-width="1" fill="none" fill-rule="evenodd">
        <g id="28快运侧栏导航图标" transform="translate(-259.000000, -1005.000000)" fill="#FFFFFF" fill-rule="nonzero">
            <g id="Group-2" transform="translate(257.000000, 719.000000)">
                <g id="dxtdsz-copy" transform="translate(2.000000, 286.000000)">
                    <path d="M9.23630701,18 L7.76165899,18 C6.6348245,18 5.71749173,17.0903182 5.71749173,15.9728821 L5.71749173,15.7752129 C5.71749173,15.3576871 5.49985402,14.9845361 5.13576851,14.7747647 C4.771683,14.5670103 4.33640758,14.5670103 3.97232207,14.7747647 L3.8014663,14.8735993 C3.32957893,15.1438817 2.77836567,15.2164948 2.25156038,15.0753026 C1.72475508,14.9361273 1.28337768,14.5992828 1.01082204,14.1313312 L0.274515028,12.8646347 C0.00195939309,12.3966831 -0.0712645087,11.8500672 0.0711153004,11.3276558 C0.211461112,10.8052443 0.551138657,10.3675482 1.02302602,10.0972658 L1.1938818,9.9984312 C1.55796731,9.79067683 1.77560502,9.41550874 1.77560502,8.99798297 C1.77560502,8.58045719 1.55796731,8.20730614 1.1938818,7.99753474 L1.02302602,7.89870013 C0.551138657,7.62841775 0.211461112,7.19072165 0.0711153004,6.66831017 C-0.0692305115,6.1458987 0.00195939309,5.59928283 0.274515028,5.13133124 L1.01082204,3.86463469 C1.2671057,3.42290453 1.68000714,3.09614523 2.17020049,2.94486777 C2.65835983,2.79359032 3.18109713,2.82787987 3.64078051,3.04168534 C3.89503017,3.15867324 4.00486603,3.45921112 3.88689418,3.71134021 C3.76892234,3.9634693 3.46585675,4.07238906 3.21160709,3.95540117 C2.73361773,3.7355446 2.15392851,3.91707754 1.89154286,4.37090991 L1.15523585,5.63760645 C1.01895803,5.87359928 0.982346079,6.14791573 1.05353598,6.41012999 C1.12472589,6.67234424 1.29354766,6.89220081 1.53152534,7.027342 L1.70238111,7.1261766 C2.3858042,7.51748095 2.79260365,8.2173913 2.79260365,9 C2.79260365,9.7826087 2.3858042,10.482519 1.70238111,10.8738234 L1.53152534,10.972658 C1.29354766,11.1077992 1.12472589,11.3276558 1.05353598,11.58987 C0.982346079,11.8520843 1.01895803,12.1264007 1.15523585,12.3623935 L1.89154286,13.6290901 C2.02782068,13.8650829 2.24952638,14.0324966 2.51394603,14.1030928 C2.77836567,14.1736889 3.0549893,14.1373823 3.29296698,14.0022411 L3.46382275,13.9034065 C4.14724584,13.5121022 4.96084474,13.5121022 5.64426783,13.9034065 C6.32769091,14.2947109 6.73449037,14.9946212 6.73449037,15.7772299 L6.73449037,15.9748991 C6.73449037,16.5356342 7.19417375,16.9935007 7.76165899,16.9935007 L9.23630701,16.9935007 C9.80175825,16.9935007 10.2634756,16.5376513 10.2634756,15.9748991 L10.2634756,15.7752129 C10.2634756,14.9926042 10.6702751,14.2926939 11.3536982,13.9013895 C12.0371213,13.5100852 12.8507202,13.5100852 13.5341433,13.9013895 L13.704999,14.0002241 C13.9429767,14.1353653 14.2196003,14.1716719 14.48402,14.1010758 C14.7484396,14.0304796 14.9701453,13.8630659 15.1064231,13.6270731 L15.8427302,12.3603765 C16.1254558,11.8742716 15.956634,11.2510085 15.4664407,10.9686239 L15.2955849,10.8697893 C14.6121618,10.478485 14.2053624,9.77857463 14.2053624,8.99596593 C14.2053624,8.21335724 14.6121618,7.51344688 15.2955849,7.12214254 L15.4664407,7.02330793 C15.7044183,6.88816674 15.8732401,6.66831017 15.94443,6.40609592 C16.0156199,6.14388167 15.979008,5.86956522 15.8427302,5.63357239 L15.1084571,4.37292694 C14.8257315,3.88682205 14.1972264,3.71940834 13.704999,3.99977589 L13.5341433,4.09861049 C12.8507202,4.48991484 12.0350873,4.48991484 11.3536982,4.09861049 C10.6702751,3.70730614 10.2634756,3.00739579 10.2634756,2.22478709 L10.2634756,2.02711788 C10.2634756,1.46638279 9.80379225,1.00851636 9.23630701,1.00851636 L7.76165899,1.00851636 C7.19620775,1.00851636 6.73449037,1.46436576 6.73449037,2.02711788 L6.73449037,2.22478709 C6.73449037,2.66450022 6.60431454,3.08404303 6.36023487,3.43904079 C6.20158308,3.66898252 5.8863135,3.7294935 5.65443781,3.57216495 C5.42256213,3.4148364 5.36154221,3.10219632 5.52019399,2.87225459 C5.65036982,2.68467055 5.71749173,2.46077992 5.71749173,2.22478709 L5.71749173,2.02711788 C5.71749173,0.909681757 6.6348245,0 7.76165899,0 L9.23630701,0 C10.3631415,0 11.2804743,0.909681757 11.2804743,2.02711788 L11.2804743,2.22478709 C11.2804743,2.64231286 11.498112,3.01546392 11.8621975,3.22523532 C12.226283,3.43298969 12.6615584,3.43298969 13.0256439,3.22523532 L13.1964997,3.12640072 C14.1728184,2.56768265 15.4257607,2.90049305 15.989178,3.86866876 L16.725485,5.13536531 C16.9980406,5.6033169 17.0712645,6.14993277 16.9288847,6.67234424 C16.7885389,7.19475571 16.4488613,7.63245182 15.976974,7.9027342 L15.8061182,8.0015688 C15.4420327,8.20932317 15.224395,8.58449126 15.224395,9.00201703 C15.224395,9.41954281 15.4420327,9.79269386 15.8061182,10.0024653 L15.976974,10.1012999 C16.4488613,10.3715823 16.7885389,10.8092784 16.9288847,11.3316898 C17.0692305,11.8541013 16.9980406,12.4007172 16.725485,12.8686688 L15.989178,14.1353653 C15.7166223,14.6033169 15.2752449,14.9401614 14.7484396,15.0793366 C14.2216343,15.2185119 13.6704211,15.1479157 13.1985337,14.8776333 L13.0276779,14.7787987 C12.6635924,14.5710444 12.228317,14.5710444 11.8642315,14.7787987 C11.500146,14.9865531 11.2825083,15.3617212 11.2825083,15.779247 L11.2825083,15.9769162 C11.2804743,17.0903182 10.3651755,18 9.23630701,18 Z" id="Shape"></path>
                    <path d="M8.5,12 C6.57017029,12 5,10.4298297 5,8.5 C5,6.57017029 6.57017029,5 8.5,5 C10.4298297,5 12,6.57017029 12,8.5 C12,10.4298297 10.4298297,12 8.5,12 Z M8.5,6.02554316 C7.13740458,6.02554316 6.02759836,7.13534938 6.02759836,8.4979448 C6.02759836,9.86054022 7.13740458,10.9703464 8.5,10.9703464 C9.86259542,10.9703464 10.9724016,9.86054022 10.9724016,8.4979448 C10.9724016,7.13534938 9.86259542,6.02554316 8.5,6.02554316 Z" id="Shape"></path>
                </g>
            </g>
        </g>
    </g>
</svg>