<?xml version="1.0" encoding="UTF-8"?>
<svg width="20px" height="20px" viewBox="0 0 20 20" version="1.1" xmlns="http://www.w3.org/2000/svg" xmlns:xlink="http://www.w3.org/1999/xlink">
    <!-- Generator: Sketch 51.2 (57519) - http://www.bohemiancoding.com/sketch -->
    <title>ghtd copy</title>
    <desc>Created with Sketch.</desc>
    <defs></defs>
    <g id="28快运首页dashboard" stroke="none" stroke-width="1" fill="none" fill-rule="evenodd">
        <g id="28快运侧栏导航图标" transform="translate(-256.000000, -964.000000)">
            <g id="Group-2" transform="translate(257.000000, 719.000000)">
                <g id="ghtd-copy" transform="translate(0.000000, 246.000000)">
                    <path d="M5.64502031,8.04219522 C5.97314695,7.45885897 6.16455129,7.14896623 6.21923906,7.11250772 C6.27392683,7.0760492 6.4288732,7.0760492 6.68408281,7.11250772 L6.73877031,7.22188272 C6.70231179,7.44063381 6.50179297,7.83255698 6.13720781,8.39766397 C5.77262265,8.96277096 5.40804297,9.45495354 5.04345781,9.87422647 C4.67887265,10.2934994 4.47835382,10.5304762 4.44189531,10.585164 C4.40543679,10.6398517 4.2778339,10.6671952 4.05908281,10.6671952 L4.05908281,10.366414 C4.05908281,10.3117262 4.24137265,10.0474059 4.60595781,9.57344522 C4.97054297,9.09948452 5.31689367,8.58907295 5.64502031,8.04219522 Z M9.41845781,5.14375772 C9.05387265,4.74271405 8.81689586,4.51485174 8.70752031,4.46016397 C8.59814476,4.4054762 8.54345781,4.30521678 8.54345781,4.15938272 C8.54345781,4.01354866 8.57991578,3.93151823 8.65283281,3.91328897 C8.72574984,3.89505971 8.84423824,3.9041742 9.00830156,3.94063272 C9.17236488,3.97709123 9.46402863,4.23229702 9.88330156,4.70625772 C10.3025745,5.18021842 10.867673,5.74531694 11.5786141,6.40157022 L13.3559578,8.04219522 C13.8299185,8.47969741 14.1033533,8.7166742 14.1762703,8.75313272 C14.2491873,8.78959123 14.3403323,8.86250717 14.4497078,8.97188272 C14.2309567,9.08125827 14.0851248,9.09948725 14.0122078,9.02657022 C13.9392908,8.95365319 13.629398,8.74401987 13.0825203,8.39766397 C12.5356426,8.05130807 11.8793991,7.51355303 11.1137703,6.78438272 C10.3481415,6.05521241 9.78304297,5.50834287 9.41845781,5.14375772 Z M8.87158281,9.57344522 C8.94449984,9.42761116 8.93538535,9.30912276 8.84423906,9.21797647 C8.75309277,9.12683018 8.76220726,8.97188381 8.87158281,8.75313272 L9.58252031,8.97188272 C9.58252031,9.26355084 9.5916348,9.47318416 9.60986406,9.60078897 C9.62809332,9.72839377 9.58252086,9.91979811 9.47314531,10.1750077 C9.36376976,10.4302173 9.11767847,10.794797 8.73486406,11.2687577 C8.35204965,11.7427184 7.96012648,12.180214 7.55908281,12.5812577 C7.15803914,12.9823014 6.9666348,13.2283927 6.98486406,13.319539 C7.00309332,13.4106853 7.01220781,13.4653722 7.01220781,13.4836015 C7.01220781,13.5018307 7.17626867,13.4380293 7.50439531,13.2921952 C7.83252195,13.1463612 8.16975816,12.9914148 8.51611406,12.8273515 C8.86246996,12.6632881 9.10856125,12.5539142 9.25439531,12.4992265 C9.40022937,12.4445387 9.6007482,12.3989662 9.85595781,12.3625077 L10.1840828,12.5812577 C10.0017902,12.8729258 9.8103859,13.0461012 9.60986406,13.100789 C9.40934222,13.1554767 9.11767847,13.2648506 8.73486406,13.428914 C8.35204965,13.5929773 7.92366851,13.7843816 7.44970781,14.0031327 C6.97574711,14.2218838 6.5200225,14.3677157 6.08252031,14.4406327 L5.86377031,14.1671952 C6.00960437,13.8026101 6.15543625,13.5291753 6.30127031,13.3468827 C6.44710437,13.1645901 6.69319566,12.8364684 7.03955156,12.3625077 C7.38590746,11.888547 7.72314367,11.4692804 8.05127031,11.1046952 C8.37939695,10.7401101 8.54345781,10.4940188 8.54345781,10.366414 C8.54345781,10.2388092 8.58903027,10.1112063 8.68017656,9.98360147 C8.77132285,9.85599666 8.83512429,9.71927928 8.87158281,9.57344522 Z M10.9497078,12.4171952 C10.7309567,12.0890686 10.5942393,11.8703208 10.5395516,11.7609452 C10.4848638,11.6515697 10.4939783,11.5239668 10.5668953,11.3781327 L10.9497078,11.1593827 C10.9861663,11.2322997 11.1228837,11.4510476 11.3598641,11.8156327 C11.5968444,12.1802179 11.7244473,12.5265686 11.7426766,12.8546952 C11.7609058,13.1828219 11.8429362,13.5109436 11.9887703,13.8390702 C11.8064777,13.8390702 11.6697603,13.8117267 11.5786141,13.757039 C11.4874678,13.7023512 11.4236663,13.5474048 11.3872078,13.2921952 C11.3507493,13.0369856 11.2049174,12.7453219 10.9497078,12.4171952 Z" id="公" fill="#FFFFFF"></path>
                    <circle id="Oval-7" stroke="#FFFFFF" cx="9" cy="9" r="9"></circle>
                </g>
            </g>
        </g>
    </g>
</svg>