<?xml version="1.0" encoding="UTF-8"?>
<svg width="18px" height="16px" viewBox="0 0 18 16" version="1.1" xmlns="http://www.w3.org/2000/svg" xmlns:xlink="http://www.w3.org/1999/xlink">
    <!-- Generator: Sketch 51.2 (57519) - http://www.bohemiancoding.com/sketch -->
    <title>hhrgl copy</title>
    <desc>Created with Sketch.</desc>
    <defs></defs>
    <g id="28快运首页dashboard" stroke="none" stroke-width="1" fill="none" fill-rule="evenodd">
        <g id="28快运侧栏导航图标" transform="translate(-258.000000, -840.000000)" fill="#FFFFFF" fill-rule="nonzero">
            <g id="Group-2" transform="translate(257.000000, 719.000000)">
                <g id="hhrgl-copy" transform="translate(1.000000, 121.000000)">
                    <path d="M16.8689357,10.3860975 C16.1868136,9.38849448 15.2655138,8.64010467 14.1959776,8.20868403 C14.6683531,7.87321598 15.0653135,7.42417478 15.3530508,6.89853986 C15.6867361,6.29190149 15.8626746,5.60070996 15.8626746,4.89720413 C15.8626746,2.70217011 14.1847202,0.91747787 12.1236565,0.91747787 C11.8306958,0.91747787 11.5923646,1.15960991 11.5923646,1.45632365 C11.5923646,1.7530374 11.8307138,1.99516944 12.1236565,1.99516944 C13.5988168,1.99516944 14.7992083,3.29826906 14.7992083,4.89720413 C14.7992083,6.49968895 13.5987988,7.80277026 12.1236565,7.80277026 C11.8306958,7.80277026 11.5923646,8.0449023 11.5923646,8.34163436 L11.5923646,8.34339092 C11.5923646,8.64010467 11.8307138,8.8822367 12.1236565,8.8822367 C14.7766756,8.8822367 16.9365337,11.2146308 16.9365337,14.0805643 C16.9365337,14.3772781 17.1757654,14.6185501 17.4678436,14.6185501 C17.7607863,14.6185501 18,14.3772781 18,14.0805643 C17.9974063,12.7404853 17.6073984,11.4655456 16.8689357,10.3860975 Z M11.3808889,9.47039449 C10.8244527,9.07154357 10.2160166,8.7545561 9.57636619,8.53092294 C10.9301995,7.69799826 11.7613686,6.21175803 11.7613686,4.59871552 C11.7613686,2.06296203 9.72543123,0 7.2232243,0 C4.71838766,0 2.68246827,2.06296201 2.68246827,4.60136866 C2.68246827,5.46334993 2.92170001,6.30595403 3.37154285,7.03588158 C3.75461623,7.65395594 4.27292164,8.16992974 4.88568055,8.54235892 C4.23219714,8.76778525 3.61767308,9.08737099 3.05172665,9.49326649 C2.43460891,9.9361414 1.8946534,10.4705958 1.43960516,11.0816438 C0.498348426,12.3557052 0,13.8683671 0,15.4611359 C0,15.7578497 0.239195711,16 0.53215644,16 C0.824234577,16 1.06344831,15.757868 1.06344831,15.4611359 C1.06344831,13.8023311 1.70311673,12.236844 2.86276566,11.0570153 C4.02070348,9.87894313 5.55218647,9.23089731 7.17556528,9.22914075 C7.23015882,9.23355047 7.28390582,9.22914075 7.33765279,9.21770476 L7.38095298,9.20802533 C8.96186014,9.24059505 10.4456841,9.88598771 11.5767484,11.0358816 C12.7364154,12.2157286 13.3734541,13.7794408 13.3734541,15.4409171 C13.3734541,15.7376308 13.6126678,15.9788663 13.9056285,15.9788663 C14.1977067,15.9788663 14.4369204,15.7376308 14.4369204,15.4409171 C14.4369204,13.8481117 13.9394365,12.3345898 12.9955861,11.0614067 C12.5405559,10.4477238 11.9979707,9.91328772 11.3808889,9.47039449 Z M7.2232243,1.07770988 C9.13954582,1.07770988 10.700496,2.65904268 10.700496,4.60136866 C10.700496,6.54281637 9.13952782,8.12414915 7.2232243,8.12414915 C5.30692079,8.12414915 3.74595261,6.54281635 3.74595261,4.60136866 C3.74595261,2.65638952 5.30690279,1.07770988 7.2232243,1.07770988 Z" id="me_yaoqing"></path>
                </g>
            </g>
        </g>
    </g>
</svg>