<?xml version="1.0" encoding="UTF-8"?>
<svg width="18px" height="20px" viewBox="0 0 18 20" version="1.1" xmlns="http://www.w3.org/2000/svg" xmlns:xlink="http://www.w3.org/1999/xlink">
    <!-- Generator: Sketch 51.2 (57519) - http://www.bohemiancoding.com/sketch -->
    <title>me_siji</title>
    <desc>Created with Sketch.</desc>
    <defs></defs>
    <g id="28快运首页dashboard" stroke="none" stroke-width="1" fill="none" fill-rule="evenodd">
        <g id="28快运侧栏导航图标" transform="translate(-258.000000, -718.000000)" fill-rule="nonzero" stroke="#000000">
            <g id="Group-2" transform="translate(257.000000, 719.000000)">
                <g id="czgl-copy-2" transform="translate(2.000000, 0.000000)">
                    <path d="M7.4998203,8 C9.51855635,7.88718554 11.0761121,6.10757918 10.9967369,4.00455063 C11.0810283,1.89804297 9.5220996,0.112810591 7.4998203,0 C5.48108425,0.112814462 3.92352852,1.89242082 4.00290367,3.99544937 C3.92352852,6.09847793 5.48108425,7.87808429 7.4998203,7.99089875 L7.4998203,8 Z M7.6626157,13.4757587 L11,8.41426379 C10.0488399,8.14738815 9.06876793,8.01115454 8.08427446,8.00896717 C6.6216358,7.94316552 5.16480909,8.2402354 3.83180091,8.87611342 C3.83180091,8.87611342 3.56265702,8.87611342 3.03334069,9.81866368 C2.225909,11.2230636 0.978875622,13.2778232 0.620017094,13.9658849 C0.359844662,14.418309 -0.277129224,15.3137317 0.135558082,16.2657075 C0.413286949,16.8823871 0.756373733,17.4641663 1.15830489,18 L3.15894118,18 C3.32002369,15.5022885 5.26268696,13.5429476 7.64467277,13.4757587 L7.6626157,13.4757587 Z M15.3879599,14.1105528 C14.7410446,13.0251256 13.3159559,10.8271357 13.2034489,10.6281407 C13.0909419,10.4291457 12.5846604,9.3798995 11.7033555,9.10854271 L11.3377078,9 L8,13.6582915 C10.516498,13.6939553 12.5878157,15.5784343 12.7721721,18 L14.6472888,18 C14.6472888,18 14.8535516,18 15.8473635,16.2452261 C16.2223868,15.3407035 15.8473635,14.9065327 15.3598332,14.1105528 L15.3879599,14.1105528 Z M8,15 C5.78823529,15 4,16.3002833 4,18 L12,18 C12,16.3002833 10.2117647,15 8,15 Z" id="me_siji"></path>
                </g>
            </g>
        </g>
    </g>
</svg>