<?xml version="1.0" encoding="UTF-8"?>
<svg width="18px" height="15px" viewBox="0 0 18 15" version="1.1" xmlns="http://www.w3.org/2000/svg" xmlns:xlink="http://www.w3.org/1999/xlink">
    <!-- Generator: Sketch 51.2 (57519) - http://www.bohemiancoding.com/sketch -->
    <title>rwdd copy</title>
    <desc>Created with Sketch.</desc>
    <defs></defs>
    <g id="28快运首页dashboard" stroke="none" stroke-width="1" fill="none" fill-rule="evenodd">
        <g id="28快运侧栏导航图标" transform="translate(-323.000000, -1056.000000)">
            <g id="Group-2" transform="translate(257.000000, 719.000000)">
                <g id="rwdd-copy" transform="translate(66.000000, 336.000000)">
                    <path d="M17.5,7.43833612 L15.3193144,13.5 C15.4407263,13.5 15.5962092,13.5 15.8143369,13.5 C16.1737381,13.5 16.1737381,13.5 16.5,13.5 C17.046948,13.5 17.5,13.025374 17.5,12.4285714 L17.5,7.43833612 Z M3.1407884,13.5 L5.0745055,3.5 C4.60076899,3.5 4.31114836,3.5 3.31622285,3.5 L0.5,7.71370094 L0.5,12.4285714 C0.5,13.025374 0.953052047,13.5 1.5,13.5 C2.49442421,13.5 2.70079245,13.5 3.14103733,13.5 Z" id="Combined-Shape" stroke="#FCFCFC"></path>
                    <circle id="Oval" stroke="#FCFCFC" cx="5.5" cy="13.5" r="1.5"></circle>
                    <path d="M7,12.5 L12,12.5" id="Line-4" stroke="#FCFCFC" stroke-linecap="square"></path>
                    <circle id="Oval-Copy" stroke="#FCFCFC" cx="13.5" cy="13.5" r="1.5"></circle>
                    <path d="M5.5,3.79524222 L17.5,9.22495968 L17.5,1.5 L5.5,1.5 L5.5,3.79524222 Z" id="Rectangle-2-Copy" stroke="#FCFCFC"></path>
                    <text id="A" font-family="PingFangSC-Medium, PingFang SC" font-size="6" font-weight="400" fill="#FCFCFC">
                        <tspan x="3" y="10">A</tspan>
                    </text>
                    <text id="B" font-family="PingFangSC-Medium, PingFang SC" font-size="6" font-weight="400" fill="#FCFCFC">
                        <tspan x="13" y="6">B</tspan>
                    </text>
                    <g id="Group-11" transform="translate(11.000000, 10.000000) rotate(-45.000000) translate(-11.000000, -10.000000) translate(7.000000, 8.000000)">
                        <g id="Group-10" stroke="#FCFCFC" stroke-width="0.5">
                            <path d="M0.47642822,0.539750944 C1.28467568,2.0720046 3.20110071,2.8580255 6.22570333,2.89781364" id="Path-4"></path>
                        </g>
                        <polygon id="Triangle" fill="#FCFCFC" points="7.94480969 2.89394335 5.8505969 3.91957985 5.92247343 1.71428571"></polygon>
                    </g>
                </g>
            </g>
        </g>
    </g>
</svg>