<?xml version="1.0" encoding="UTF-8"?>
<svg width="17px" height="18px" viewBox="0 0 17 18" version="1.1" xmlns="http://www.w3.org/2000/svg" xmlns:xlink="http://www.w3.org/1999/xlink">
    <!-- Generator: Sketch 51.2 (57519) - http://www.bohemiancoding.com/sketch -->
    <title>zdsz copy</title>
    <desc>Created with Sketch.</desc>
    <defs></defs>
    <g id="28快运首页dashboard" stroke="none" stroke-width="1" fill="none" fill-rule="evenodd">
        <g id="28快运侧栏导航图标" transform="translate(-259.000000, -1044.000000)" fill="#FFFFFF">
            <g id="Group-2" transform="translate(257.000000, 719.000000)">
                <g id="zdsz-copy" transform="translate(2.000000, 325.000000)">
                    <path d="M8.98444831,17.6564335 L7.55001149,17.6564335 C6.45390389,17.6564335 5.56158526,16.7641148 5.56158526,15.6680072 L5.56158526,15.474111 C5.56158526,15.0645545 5.34988217,14.6985258 4.99572466,14.4927583 C4.64156716,14.2889694 4.21816097,14.2889694 3.86400347,14.4927583 L3.69780665,14.5897065 C3.23878686,14.8548299 2.70260427,14.9260572 2.19016408,14.7875598 C1.67772389,14.651041 1.2483821,14.3206259 0.983258608,13.8616061 L0.26702946,12.619087 C0.00190596371,12.1600672 -0.0693212444,11.6238847 0.0691761047,11.1114445 C0.20569492,10.5990043 0.536110024,10.1696625 0.99512981,9.90453899 L1.16132663,9.80759084 C1.51548414,9.60380189 1.72718723,9.23579465 1.72718723,8.8262382 C1.72718723,8.41668175 1.51548414,8.05065305 1.16132663,7.84488556 L0.99512981,7.74793741 C0.536110024,7.48281391 0.20569492,7.05347213 0.0691761047,6.54103194 C-0.0673427108,6.02859175 0.00190596371,5.49240916 0.26702946,5.03338937 L0.983258608,3.7908703 C1.23255384,3.35757145 1.63419615,3.03704901 2.11102274,2.88865899 C2.58587079,2.74026898 3.09435391,2.77390405 3.5415025,2.9836286 C3.78881919,3.09838355 3.89566,3.39318505 3.78090506,3.64050175 C3.66615011,3.88781844 3.37134861,3.99465925 3.12403192,3.87990431 C2.65907653,3.66424415 2.09519447,3.84231217 1.83996364,4.28748222 L1.12373449,5.53000129 C0.991172742,5.76148972 0.955559138,6.03057028 1.02480781,6.28777965 C1.09405649,6.54498901 1.25827477,6.76064917 1.4897632,6.89321091 L1.65596002,6.99015906 C2.32074729,7.37399457 2.716454,8.06054571 2.716454,8.82821673 C2.716454,9.59588775 2.32074729,10.2824389 1.65596002,10.6662744 L1.4897632,10.7632226 C1.25827477,10.8957843 1.09405649,11.1114445 1.02480781,11.3686538 C0.955559138,11.6258632 0.991172742,11.8949437 1.12373449,12.1264322 L1.83996364,13.3689512 C1.97252539,13.6004397 2.18818554,13.764658 2.44539491,13.8339066 C2.70260427,13.9031553 2.97168483,13.8675417 3.20317326,13.73498 L3.36937008,13.6380318 C4.03415735,13.2541963 4.82557078,13.2541963 5.49035805,13.6380318 C6.15514533,14.0218673 6.55085204,14.7084185 6.55085204,15.4760895 L6.55085204,15.6699858 C6.55085204,16.2200181 6.99800062,16.6691452 7.55001149,16.6691452 L8.98444831,16.6691452 C9.53448064,16.6691452 9.98360776,16.2219966 9.98360776,15.6699858 L9.98360776,15.474111 C9.98360776,14.7064399 10.3793145,14.0198888 11.0441017,13.6360533 C11.708889,13.2522178 12.5003024,13.2522178 13.1650897,13.6360533 L13.3312865,13.7330014 C13.562775,13.8655632 13.8318555,13.9011768 14.0890649,13.8319281 C14.3462743,13.7626794 14.5619344,13.5984611 14.6944962,13.3669727 L15.4107253,12.1244536 C15.6857415,11.6476271 15.5215232,11.0362602 15.0446966,10.7592655 L14.8784998,10.6623173 C14.2137125,10.2784818 13.8180058,9.59193069 13.8180058,8.82425967 C13.8180058,8.05658865 14.2137125,7.3700375 14.8784998,6.98620199 L15.0446966,6.88925385 C15.276185,6.7566921 15.4404033,6.54103194 15.509652,6.28382258 C15.5789007,6.02661322 15.5432871,5.75753265 15.4107253,5.52604423 L14.6964747,4.28946075 C14.4214585,3.81263417 13.8100917,3.64841588 13.3312865,3.92343204 L13.1650897,4.02038019 C12.5003024,4.4042157 11.7069105,4.4042157 11.0441017,4.02038019 C10.3793145,3.63654468 9.98360776,2.94999353 9.98360776,2.18232251 L9.98360776,1.98842623 C9.98360776,1.4383939 9.53645918,0.989266779 8.98444831,0.989266779 L7.55001149,0.989266779 C6.99997916,0.989266779 6.55085204,1.43641536 6.55085204,1.98842623 L6.55085204,2.18232251 C6.55085204,2.61364283 6.42422589,3.02517781 6.18680186,3.37339972 C6.03247625,3.59895254 5.72580355,3.65830855 5.50025072,3.50398293 C5.27469789,3.34965731 5.21534189,3.04298461 5.36966751,2.81743179 C5.49629365,2.63342817 5.56158526,2.41381094 5.56158526,2.18232251 L5.56158526,1.98842623 C5.56158526,0.892318634 6.45390389,0 7.55001149,0 L8.98444831,0 C10.0805559,0 10.9728745,0.892318634 10.9728745,1.98842623 L10.9728745,2.18232251 C10.9728745,2.59187896 11.1845776,2.95790767 11.5387351,3.16367516 C11.8928926,3.36746411 12.3162988,3.36746411 12.6704563,3.16367516 L12.8366532,3.06672701 C13.7863493,2.51867322 15.0051259,2.84513126 15.5531797,3.79482736 L16.2694089,5.03734644 C16.5345324,5.49636622 16.6057596,6.03254882 16.4672622,6.54498901 C16.3307434,7.0574292 16.0003283,7.48677098 15.5413085,7.75189448 L15.3751117,7.84884262 C15.0209542,8.05263158 14.8092511,8.42063882 14.8092511,8.83019527 C14.8092511,9.23975171 15.0209542,9.60578042 15.3751117,9.81154791 L15.5413085,9.90849606 C16.0003283,10.1736196 16.3307434,10.6029613 16.4672622,11.1154015 C16.603781,11.6278417 16.5345324,12.1640243 16.2694089,12.6230441 L15.5531797,13.8655632 C15.2880562,14.324583 14.8587144,14.6549981 14.3462743,14.7915169 C13.8338341,14.9280357 13.2976515,14.858787 12.8386317,14.5936635 L12.6724349,14.4967154 C12.3182774,14.2929264 11.8948712,14.2929264 11.5407137,14.4967154 C11.1865562,14.7005043 10.9748531,15.0685116 10.9748531,15.478068 L10.9748531,15.6719643 C10.9728745,16.7641148 10.0825344,17.6564335 8.98444831,17.6564335 Z" id="Shape" fill-rule="nonzero"></path>
                    <path d="M4.08750007,7.35108807 C4.01458304,6.65837627 3.98723956,6.29379659 4.00546882,6.25733807 C4.02369808,6.22087955 4.12395749,6.1661926 4.30625007,6.09327557 C4.3791671,6.23910963 4.41562507,6.34848354 4.41562507,6.42140057 C4.41562507,6.4943176 4.50676999,6.82243932 4.68906257,7.40577557 C4.87135515,7.98911182 5.12656093,9.11930885 5.45468757,10.7964006 L5.83750007,10.3589006 C5.76458304,10.7234857 5.6916671,10.969577 5.61875007,11.0971818 C5.54583304,11.2247866 5.44557362,11.3068171 5.31796882,11.3432756 C5.19036402,11.3797341 5.09921909,11.3341616 5.04453132,11.2065568 C4.98984355,11.078952 4.83489718,10.5776549 4.57968757,9.70265057 C4.32447796,8.82764619 4.1604171,8.04379987 4.08750007,7.35108807 Z M7.91562507,5.76515057 C7.87916655,5.03598026 7.8244796,4.58937014 7.75156257,4.42530682 C7.67864554,4.2612435 7.67864554,4.09718264 7.75156257,3.93311932 C7.8244796,3.769056 7.92473902,3.66879659 8.05234382,3.63233807 C8.17994862,3.59587955 8.26197905,3.64145202 8.29843757,3.76905682 C8.33489609,3.89666162 8.38958304,4.42530217 8.46250007,5.35499432 C8.5354171,6.28468647 8.56276058,7.48779944 8.54453132,8.96436932 C8.52630206,10.4409392 8.52630206,11.808113 8.54453132,13.0659318 C8.56276058,14.3237506 8.5354171,14.998223 8.46250007,15.0893693 L8.24375007,15.3628068 C8.17083304,15.4539531 8.07968812,15.5086401 7.97031257,15.5268693 C7.86093702,15.5450986 7.79713558,15.5359841 7.77890632,15.4995256 C7.76067706,15.4630671 7.76067706,15.3628076 7.77890632,15.1987443 C7.79713558,15.034681 7.84270804,14.2872926 7.91562507,12.9565568 C7.9885421,11.625821 8.02500007,10.2768762 8.02500007,8.90968182 C8.02500007,7.54248748 7.9885421,6.49432088 7.91562507,5.76515057 Z M8.90000007,8.90968182 C8.93645859,8.92791108 9.19166437,8.9005676 9.66562507,8.82765057 L8.9882277,8.82765057 C8.91447637,8.87487178 8.88506731,8.90221544 8.90000007,8.90968182 Z M8.51718757,8.60890057 C8.61898771,8.57496719 8.73460455,8.54498188 8.86403895,8.51894447 C8.92127096,8.47699683 8.97883091,8.43406554 9.03671882,8.39015057 C9.5653673,7.9891069 10.0210919,7.68832866 10.4039063,7.48780682 C10.7867207,7.28728498 10.9872396,7.16879659 11.0054688,7.13233807 C11.0236981,7.09587955 10.9963546,7.05030709 10.9234376,6.99561932 C10.8505205,6.94093155 10.5041698,6.94093155 9.88437507,6.99561932 C9.2645803,7.05030709 8.37136007,7.18702448 7.20468757,7.40577557 C6.03801507,7.62452666 5.42734409,7.73390057 5.37265632,7.73390057 C5.31796855,7.73390057 5.2541671,7.67921362 5.18125007,7.56983807 C5.10833304,7.46046252 5.10833304,7.37843209 5.18125007,7.32374432 C5.2541671,7.26905655 5.39088448,7.19614061 5.59140632,7.10499432 C5.79192816,7.01384803 6.40259913,6.91358862 7.42343757,6.80421307 C8.44427601,6.69483752 9.06406148,6.6036926 9.28281257,6.53077557 C9.50156366,6.45785854 9.88437234,6.42140057 10.4312501,6.42140057 C10.9781278,6.42140057 11.315364,6.45785854 11.4429688,6.53077557 C11.5705736,6.6036926 11.6434896,6.722181 11.6617188,6.88624432 C11.6799481,7.05030764 11.4612003,7.29639893 11.0054688,7.62452557 C10.5998612,7.91656302 10.1798194,8.17971728 9.74533338,8.41399451 C9.91186343,8.40548203 10.0493559,8.40664866 10.1578126,8.41749432 C10.3401051,8.43572358 10.467708,8.49952502 10.5406251,8.60890057 C10.6135421,8.71827612 10.6408856,8.80030655 10.6226563,8.85499432 C10.6044271,8.90968209 10.5223966,8.97348354 10.3765626,9.04640057 C10.2307285,9.1193176 9.96640823,9.237806 9.58359382,9.40186932 C9.20077941,9.56593264 8.7450548,9.74822248 8.21640632,9.94874432 C7.68775784,10.1492662 7.31406366,10.3042125 7.09531257,10.4135881 C6.87656148,10.5229636 6.73984409,10.5867651 6.68515632,10.6049943 C6.63046855,10.6232236 6.53020913,10.5958801 6.38437507,10.5229631 C6.23854101,10.450046 6.18385405,10.3406721 6.22031257,10.1948381 C6.25677109,10.049004 6.33880152,9.94874459 6.46640632,9.89405682 C6.59401112,9.83936905 6.68515605,9.79379659 6.73984382,9.75733807 C6.79453159,9.72087955 7.05885187,9.58416217 7.53281257,9.34718182 C7.86978427,9.17869597 8.2205739,8.96874735 8.58518686,8.71733251 C8.560989,8.68731458 8.53832259,8.65117062 8.51718757,8.60890057 Z" id="中"></path>
                </g>
            </g>
        </g>
    </g>
</svg>